<svg xmlns="http://www.w3.org/2000/svg" width="90" height="90" viewBox="0 0 90 90">
  <g id="Group_1942" data-name="Group 1942" transform="translate(-307 -5241)">
    <circle id="Ellipse_38" data-name="Ellipse 38" cx="45" cy="45" r="45" transform="translate(307 5241)" fill="#e54541"/>
    <g id="Group_1941" data-name="Group 1941" transform="translate(329.375 5263.872)">
      <path id="Path_561" data-name="Path 561" d="M1099.021,612.389l-6-3.462a.867.867,0,0,1,0-1.5l6-3.462a.867.867,0,0,1,1.3.751v2.715h1.057a13.757,13.757,0,0,1,4.978.928v-2.623a9.41,9.41,0,0,1,5.5-8.547l-1.249-2.349a.867.867,0,0,1,.8-1.273l6.92.243a.867.867,0,0,1,.7,1.326L1115.353,601a.867.867,0,0,1-1.5-.053l-1.212-2.281a7.73,7.73,0,0,0-4.606,7.062v3.407a13.872,13.872,0,0,1,6.892,9.351h.3a8.212,8.212,0,0,0,8.2-8.107h-2.822a.867.867,0,0,1-.75-1.3l3.462-6a.867.867,0,0,1,1.5,0l3.462,6a.867.867,0,0,1-.75,1.3h-2.423a9.892,9.892,0,0,1-9.88,9.785h-.067q.042.538.043,1.086v15.763a.839.839,0,1,1-1.678,0V621.255c0-.366-.017-.728-.049-1.086h-4.262a8.223,8.223,0,0,0-1.18.086v16.763a.839.839,0,1,1-1.678,0V620.684a8.217,8.217,0,0,0-5.345,7.689v8.646a.839.839,0,1,1-1.678,0v-8.646a9.9,9.9,0,0,1,7.023-9.46v-8.738a12.079,12.079,0,0,0-4.978-1.067h-1.057v2.531A.867.867,0,0,1,1099.021,612.389Zm9.013,6.172a9.933,9.933,0,0,1,1.18-.071h3.994a12.185,12.185,0,0,0-5.174-7.392Z" transform="translate(-1083.585 -593.564)" fill="#fff"/>
      <path id="Path_562" data-name="Path 562" d="M1400.856,753.3l6.689,1.792a.867.867,0,0,1,.389,1.45l-1.853,1.853a14.553,14.553,0,0,1,4.132,10.2v10.261a.839.839,0,0,1-1.678,0V768.6a12.887,12.887,0,0,0-3.641-9.012l-1.857,1.857a.867.867,0,0,1-1.45-.389l-1.792-6.689A.867.867,0,0,1,1400.856,753.3Z" transform="translate(-1399.764 -735.404)" fill="#fff"/>
    </g>
    <g id="Path_1042" data-name="Path 1042" transform="translate(311 5245)" fill="none">
      <path d="M41,0A41,41,0,1,1,0,41,41,41,0,0,1,41,0Z" stroke="none"/>
      <path d="M 41 1.5 C 35.6668701171875 1.5 30.49407196044922 2.544166564941406 25.62527084350586 4.603492736816406 C 20.92182540893555 6.592880249023438 16.69738006591797 9.441184997558594 13.06928253173828 13.06928253173828 C 9.441184997558594 16.69738006591797 6.592880249023438 20.92182540893555 4.603492736816406 25.62527084350586 C 2.544166564941406 30.49407196044922 1.5 35.6668701171875 1.5 41 C 1.5 46.3331298828125 2.544166564941406 51.50592803955078 4.603492736816406 56.37471771240234 C 6.592880249023438 61.07817840576172 9.441184997558594 65.30262756347656 13.06928253173828 68.93071746826172 C 16.69738006591797 72.55881500244141 20.92182540893555 75.40711975097656 25.62527084350586 77.39650726318359 C 30.49407196044922 79.45583343505859 35.6668701171875 80.5 41 80.5 C 46.3331298828125 80.5 51.50592803955078 79.45583343505859 56.37471771240234 77.39650726318359 C 61.07817840576172 75.40711975097656 65.30262756347656 72.55881500244141 68.93071746826172 68.93071746826172 C 72.55881500244141 65.30262756347656 75.40711975097656 61.07817840576172 77.39650726318359 56.37471771240234 C 79.45583343505859 51.50592803955078 80.5 46.3331298828125 80.5 41 C 80.5 35.6668701171875 79.45583343505859 30.49407196044922 77.39650726318359 25.62527084350586 C 75.40711975097656 20.92182540893555 72.55881500244141 16.69738006591797 68.93071746826172 13.06928253173828 C 65.30262756347656 9.441184997558594 61.07817840576172 6.592880249023438 56.37471771240234 4.603492736816406 C 51.50592803955078 2.544166564941406 46.3331298828125 1.5 41 1.5 M 41 0 C 63.64366912841797 0 82 18.35631942749023 82 41 C 82 63.64366912841797 63.64366912841797 82 41 82 C 18.35631942749023 82 0 63.64366912841797 0 41 C 0 18.35631942749023 18.35631942749023 0 41 0 Z" stroke="none" fill="#fff"/>
    </g>
  </g>
</svg>
