<svg xmlns="http://www.w3.org/2000/svg" width="126.551" height="71.523" viewBox="0 0 126.551 71.523">
  <path id="Path_833" data-name="Path 833" d="M43.708,80.316c0,.218,0,.367,0,.517q-.051,1.838-.105,3.677c0,.085,0,.171,0,.255-.029.377-.1.471-.466.567-.642.17-1.285.332-1.928.5q-5.463,1.41-10.928,2.817c-.442.113-.9.168-1.341.249a32.269,32.269,0,0,1-.078-5.048,5.6,5.6,0,0,1,.54-.212A5.226,5.226,0,0,0,33.232,78.2c-.05-2.845-.016-5.691,0-8.537q.036-7.54.09-15.08a7.189,7.189,0,0,0-.026-.868,2.506,2.506,0,0,0-2.464-2.228c-.425-.013-.852,0-1.278,0-.15,0-.3-.014-.482-.023V46.483l16.063-4.477c1.393,3.92,2.752,7.836,4.123,11.748S52,61.577,53.373,65.487l.122,0c.063-.165.138-.327.187-.5q.993-3.381,1.98-6.763c.856-2.925,1.719-5.847,2.569-8.773Q59.9,43.7,61.56,37.928c.086-.3.183-.549.556-.648,3.554-.942,7.1-1.9,10.651-2.861L81.2,32.144q7.4-2,14.791-3.991c.559-.151,1.12-.292,1.682-.432.145-.036.3-.05.468-.079a1.537,1.537,0,0,1,.059.263q.068,2.043.129,4.087c.015.517,0,.532-.492.674a8.576,8.576,0,0,0-2.57,1.227,5.149,5.149,0,0,0-.559.446,2.66,2.66,0,0,0-.7,3.076q2.184,6,4.359,12c.925,2.562,1.83,5.131,2.746,7.7.028.078.069.152.112.243.218-.058.244-.237.294-.388q.214-.655.416-1.315,2.906-9.471,5.809-18.944c.333-1.09.629-2.192.943-3.288a2.769,2.769,0,0,0-.123-1.705,1.961,1.961,0,0,0-2.042-1.139c-.506.059-1,.177-1.506.272-.163.031-.323.074-.522.12V26.018l32.6-8.645a29.288,29.288,0,0,1,.254,4.894c-.221.085-.458.175-.693.268a6.475,6.475,0,0,0-2.292,1.5,4.1,4.1,0,0,0-1.266,2.818c-.02.715-.076,1.43-.073,2.145q.034,8.537.086,17.074c.011,1.789.047,3.578.075,5.366a3.776,3.776,0,0,0,.038.56A2.614,2.614,0,0,0,136.5,54.32a10.252,10.252,0,0,0,3.29-1.22,22.923,22.923,0,0,0,4.664-3.383,26.137,26.137,0,0,0,5.766-7.239c.43-.826.731-1.72,1.083-2.586.14-.344.257-.7.4-1.092l3.646,1.1c-.117.436-.2.832-.331,1.214-.835,2.485-1.682,4.966-2.519,7.451q-1.222,3.63-2.424,7.267a.784.784,0,0,1-.611.578q-15.127,4.219-30.248,8.455c-.207.058-.42.1-.673.152-.013-.2-.029-.352-.03-.5,0-1.38.008-2.761-.008-4.141a.6.6,0,0,1,.379-.634,15.113,15.113,0,0,0,1.479-.807,5.849,5.849,0,0,0,2.729-4.242,10.1,10.1,0,0,0,.1-1.527c0-2.658-.01-5.317-.038-7.975-.047-4.583-.1-9.166-.179-13.749a13.913,13.913,0,0,0-.3-2.322,2.622,2.622,0,0,0-.832-1.438,2.21,2.21,0,0,0-1.977-.591,5.6,5.6,0,0,0-2.53,1.152,7.44,7.44,0,0,0-2.54,3.512c-.7,2.081-1.37,4.173-2.038,6.264-.694,2.173-1.37,4.351-2.056,6.527q-1.222,3.871-2.448,7.741-2.255,7.161-4.5,14.323c-.317,1.007-.641,2.012-.947,3.021a.726.726,0,0,1-.577.559c-2.063.518-4.122,1.054-6.18,1.59-.948.247-.945.252-1.276-.652q-3.341-9.138-6.684-18.275c-1.041-2.846-2.074-5.695-3.123-8.538-.4-1.085-.8-2.172-1.264-3.23a7.524,7.524,0,0,0-.943-1.513,3.849,3.849,0,0,0-2.575-1.518,2.921,2.921,0,0,0-1.01.026,6.145,6.145,0,0,0-3.7,2.191,4.834,4.834,0,0,0-1.082,2.97c-.019,1.312-.026,2.624-.034,3.936q-.042,7.131-.083,14.262c-.013,1.891-.065,3.782-.064,5.673a5.852,5.852,0,0,0,.207,1.562A2.991,2.991,0,0,0,77.98,70.9c.417-.071.833-.147,1.272-.225A2.919,2.919,0,0,1,79.3,71c.04,1.38.08,2.759.114,4.139.013.558-.009.553-.575.7-1.547.409-3.088.84-4.634,1.251q-6.761,1.8-13.524,3.588c-.52.138-1.048.249-1.653.392,0-.631-.009-1.189,0-1.747.018-.886.051-1.771.075-2.657.014-.511.033-.527.508-.67a7.192,7.192,0,0,0,3.766-2.588,4.764,4.764,0,0,0,.907-2.871c.035-1.414.084-2.827.1-4.241.053-4.634.089-9.269.143-13.9.018-1.55.072-3.1.108-4.65,0-.162,0-.324,0-.486l-.13-.025c-.082.227-.178.45-.245.681-.426,1.472-.84,2.946-1.269,4.417-.938,3.219-1.887,6.436-2.822,9.656q-2.449,8.435-4.886,16.874c-.279.965-.571,1.926-.818,2.9a.9.9,0,0,1-.75.765c-1.358.32-2.7.688-4.056,1.036a3.069,3.069,0,0,1-.351.069c-.333.046-.422-.015-.525-.33-.7-2.152-1.4-4.307-2.114-6.453q-2.294-6.852-4.609-13.7c-.949-2.824-1.886-5.651-2.833-8.476-.083-.246-.2-.482-.3-.723l-.127.027q0,.345,0,.69.008,10.48.021,20.961a19.82,19.82,0,0,0,.1,2.242,2.841,2.841,0,0,0,1.419,2.248,2.159,2.159,0,0,0,1.265.332c.34-.025.679-.047,1.019-.068S43.3,80.34,43.708,80.316Z" transform="translate(-28.798 -17.373)" fill="#fff"/>
</svg>
